<svg width="407" height="37" viewBox="0 0 407 37" fill="none" xmlns="http://www.w3.org/2000/svg">
<g id="logo">
<g id="n-sign">
<path d="M356.35 0C357.511 0 358.494 0.402234 359.301 1.2067C360.139 1.97765 360.559 3.0838 360.559 4.52514V31.4245C360.559 32.8994 360.139 34.0391 359.301 34.8435C358.494 35.6145 357.527 36 356.398 36C354.914 36 353.818 35.4972 353.108 34.4916L338.449 15.0838V31.4245C338.449 32.8994 338.046 34.0391 337.239 34.8435C336.433 35.6145 335.449 36 334.288 36C333.127 36 332.143 35.6145 331.337 34.8435C330.531 34.0391 330.127 32.8994 330.127 31.4245V4.52514C330.127 3.0838 330.531 1.97765 331.337 1.2067C332.143 0.402234 333.127 0 334.288 0C335.707 0 336.788 0.502793 337.53 1.50838L352.14 20.8156V4.52514C352.14 3.0838 352.544 1.97765 353.35 1.2067C354.189 0.402234 355.188 0 356.35 0ZM373.494 13.7672C374.849 13.7672 375.848 14.0688 376.494 14.6722C377.171 15.2755 377.509 16.1303 377.509 17.2364C377.509 18.3426 377.171 19.2141 376.494 19.8509C375.848 20.4543 374.849 20.756 373.494 20.756H368.348C366.993 20.756 365.977 20.4543 365.3 19.8509C364.655 19.2141 364.332 18.3426 364.332 17.2364C364.332 16.1303 364.655 15.2755 365.3 14.6722C365.977 14.0688 366.993 13.7672 368.348 13.7672H373.494Z" fill="#0BA662"/>
<path d="M402.002 28.3575C403.453 28.3575 404.517 28.6592 405.195 29.2625C405.872 29.8659 406.211 30.7709 406.211 31.9776C406.211 34.4581 404.808 35.6983 402.002 35.6983H385.214C382.408 35.6983 381.004 34.4581 381.004 31.9776C381.004 30.7709 381.343 29.8659 382.02 29.2625C382.698 28.6592 383.762 28.3575 385.214 28.3575H389.132V10.2067L385.262 12.5698C384.714 12.905 384.149 13.0726 383.569 13.0726C382.666 13.0726 381.891 12.6704 381.246 11.8659C380.601 11.0279 380.279 10.1061 380.279 9.10056C380.279 7.72625 380.843 6.68715 381.972 5.98324L389.713 1.30726C391.132 0.469272 392.471 0.0502796 393.729 0.0502796C395.019 0.0502796 396.051 0.452512 396.825 1.25698C397.631 2.06145 398.034 3.15084 398.034 4.52514V28.3575H402.002Z" fill="#0BA662"/>
<path d="M371 1.77189C369.164 -1.17463 364 -0.314454 364 3.3777C364 5.92005 367.25 8.51966 371 12.0002C374.751 8.51966 378 5.92005 378 3.3777C378 -0.326999 372.823 -1.15281 371 1.77189Z" fill="#0BA662"/>
</g>
<g id="text">
<path d="M4.39202 36.128C3.08002 36.128 2.02402 35.744 1.22402 34.976C0.456022 34.176 0.0720215 33.104 0.0720215 31.76V6.32C0.0720215 5.04 0.472022 4 1.27202 3.2C2.07202 2.4 3.11202 2 4.39202 2H26.04C27.32 2 28.36 2.4 29.16 3.2C29.96 4 30.36 5.04 30.36 6.32V31.76C30.36 33.072 29.96 34.128 29.16 34.928C28.392 35.728 27.352 36.128 26.04 36.128C24.728 36.128 23.672 35.744 22.872 34.976C22.104 34.176 21.72 33.104 21.72 31.76V8.912H8.71202V31.76C8.71202 33.072 8.31202 34.128 7.51202 34.928C6.74402 35.728 5.70402 36.128 4.39202 36.128Z" fill="#0BA662"/>
<path d="M47.8219 36.224C45.2299 36.224 42.9419 35.728 40.9579 34.736C39.0059 33.712 37.4859 32.272 36.3979 30.416C35.3419 28.56 34.8139 26.384 34.8139 23.888C34.8139 21.392 35.3419 19.232 36.3979 17.408C37.4859 15.552 39.0059 14.128 40.9579 13.136C42.9099 12.144 45.1979 11.648 47.8219 11.648C50.4459 11.648 52.7339 12.144 54.6859 13.136C56.6379 14.128 58.1419 15.552 59.1979 17.408C60.2859 19.232 60.8299 21.392 60.8299 23.888C60.8299 26.384 60.2859 28.56 59.1979 30.416C58.1419 32.272 56.6379 33.712 54.6859 34.736C52.7339 35.728 50.4459 36.224 47.8219 36.224ZM47.8219 29.84C50.8619 29.84 52.3819 27.856 52.3819 23.888C52.3819 19.92 50.8619 17.936 47.8219 17.936C44.7819 17.936 43.2619 19.92 43.2619 23.888C43.2619 27.856 44.7819 29.84 47.8219 29.84Z" fill="#0BA662"/>
<path d="M74.2256 20.432C74.2256 25.232 73.5057 28.832 72.0657 31.232C70.6577 33.632 68.8816 35.232 66.7376 36.032C66.0976 36.256 65.5217 36.368 65.0097 36.368C63.9857 36.368 63.1536 36.064 62.5136 35.456C61.9056 34.816 61.6016 34.048 61.6016 33.152C61.6016 32.48 61.7937 31.824 62.1777 31.184C62.5616 30.544 63.1376 30.016 63.9056 29.6C64.8656 29.056 65.5217 28.096 65.8736 26.72C66.2577 25.344 66.4496 23.328 66.4496 20.672V16.448C66.4176 15.168 66.7536 14.144 67.4576 13.376C68.1936 12.608 69.1696 12.224 70.3857 12.224H82.9616C84.2416 12.192 85.2657 12.528 86.0337 13.232C86.8336 13.936 87.2337 14.896 87.2337 16.112V32.144C87.2337 33.392 86.8496 34.368 86.0816 35.072C85.3137 35.776 84.2737 36.128 82.9616 36.128C81.6176 36.128 80.5616 35.776 79.7936 35.072C79.0576 34.368 78.6897 33.392 78.6897 32.144V18.512H74.2256V20.432Z" fill="#0BA662"/>
<path d="M106.859 15.344C107.883 13.904 108.779 12.944 109.547 12.464C110.347 11.984 111.467 11.744 112.907 11.744C114.219 11.744 115.259 12.096 116.027 12.8C116.795 13.472 117.179 14.416 117.179 15.632V32.048C117.179 33.264 116.811 34.256 116.075 35.024C115.339 35.76 114.379 36.128 113.195 36.128C111.979 36.128 111.003 35.76 110.267 35.024C109.531 34.256 109.163 33.264 109.163 32.048V22.352L101.915 32.768C100.923 34.144 100.011 35.056 99.1793 35.504C98.3793 35.92 97.3553 36.128 96.1073 36.128C94.7953 36.128 93.7553 35.792 92.9873 35.12C92.2193 34.416 91.8353 33.456 91.8353 32.24V15.824C91.8353 14.608 92.2033 13.632 92.9393 12.896C93.7073 12.128 94.6993 11.744 95.9153 11.744C97.0993 11.744 98.0433 12.128 98.7473 12.896C99.4833 13.632 99.8513 14.608 99.8513 15.824V25.52L106.859 15.344Z" fill="#0BA662"/>
<path d="M139.212 22.736C140.364 23.408 141.244 24.048 141.852 24.656C142.46 25.264 143.212 26.4 144.108 28.064L145.164 30.128C145.516 30.8 145.692 31.472 145.692 32.144C145.692 33.264 145.26 34.208 144.396 34.976C143.564 35.744 142.588 36.128 141.468 36.128C140.796 36.128 140.156 35.952 139.548 35.6C138.94 35.248 138.428 34.704 138.012 33.968L135.708 29.504C135.26 28.64 134.78 28.016 134.268 27.632C133.788 27.248 133.02 27.056 131.964 27.056H131.052V32.192C131.052 33.408 130.668 34.368 129.9 35.072C129.132 35.776 128.092 36.128 126.78 36.128C125.468 36.128 124.428 35.776 123.66 35.072C122.892 34.368 122.508 33.408 122.508 32.192V15.68C122.508 14.464 122.892 13.504 123.66 12.8C124.428 12.096 125.468 11.744 126.78 11.744C128.092 11.744 129.132 12.096 129.9 12.8C130.668 13.504 131.052 14.464 131.052 15.68V20.864H131.82L137.34 13.52C138.268 12.368 139.324 11.792 140.508 11.792C141.436 11.792 142.236 12.128 142.908 12.8C143.612 13.44 143.964 14.24 143.964 15.2C143.964 16.096 143.612 17.008 142.908 17.936L139.212 22.736Z" fill="#0BA662"/>
<path d="M160.851 20.432C160.851 25.232 160.131 28.832 158.691 31.232C157.283 33.632 155.507 35.232 153.363 36.032C152.723 36.256 152.147 36.368 151.635 36.368C150.611 36.368 149.779 36.064 149.139 35.456C148.531 34.816 148.227 34.048 148.227 33.152C148.227 32.48 148.419 31.824 148.803 31.184C149.187 30.544 149.763 30.016 150.531 29.6C151.491 29.056 152.147 28.096 152.499 26.72C152.883 25.344 153.075 23.328 153.075 20.672V16.448C153.043 15.168 153.379 14.144 154.083 13.376C154.819 12.608 155.795 12.224 157.011 12.224H169.587C170.867 12.192 171.891 12.528 172.659 13.232C173.459 13.936 173.859 14.896 173.859 16.112V32.144C173.859 33.392 173.475 34.368 172.707 35.072C171.939 35.776 170.899 36.128 169.587 36.128C168.243 36.128 167.187 35.776 166.419 35.072C165.683 34.368 165.315 33.392 165.315 32.144V18.512H160.851V20.432Z" fill="#0BA662"/>
<path d="M193.484 15.344C194.508 13.904 195.404 12.944 196.172 12.464C196.972 11.984 198.092 11.744 199.532 11.744C200.844 11.744 201.884 12.096 202.652 12.8C203.42 13.472 203.804 14.416 203.804 15.632V32.048C203.804 33.264 203.436 34.256 202.7 35.024C201.964 35.76 201.004 36.128 199.82 36.128C198.604 36.128 197.628 35.76 196.892 35.024C196.156 34.256 195.788 33.264 195.788 32.048V22.352L188.54 32.768C187.548 34.144 186.636 35.056 185.804 35.504C185.004 35.92 183.98 36.128 182.732 36.128C181.42 36.128 180.38 35.792 179.612 35.12C178.844 34.416 178.46 33.456 178.46 32.24V15.824C178.46 14.608 178.828 13.632 179.564 12.896C180.332 12.128 181.324 11.744 182.54 11.744C183.724 11.744 184.668 12.128 185.372 12.896C186.108 13.632 186.476 14.608 186.476 15.824V25.52L193.484 15.344Z" fill="#0BA662"/>
<path d="M212.685 36.128C211.373 36.128 210.333 35.776 209.565 35.072C208.797 34.368 208.413 33.392 208.413 32.144V15.728C208.413 14.48 208.797 13.504 209.565 12.8C210.333 12.096 211.373 11.744 212.685 11.744C213.997 11.744 215.037 12.096 215.805 12.8C216.573 13.504 216.957 14.48 216.957 15.728V20.576H224.445V15.728C224.445 14.48 224.829 13.504 225.597 12.8C226.365 12.096 227.405 11.744 228.717 11.744C230.029 11.744 231.069 12.096 231.837 12.8C232.605 13.504 232.989 14.48 232.989 15.728L233.133 31.76C233.133 33.072 232.733 34.128 231.933 34.928C231.133 35.728 230.077 36.128 228.765 36.128C227.453 36.128 226.397 35.744 225.597 34.976C224.829 34.176 224.445 33.104 224.445 31.76V27.104H216.957V32.144C216.957 33.392 216.573 34.368 215.805 35.072C215.037 35.776 213.997 36.128 212.685 36.128Z" fill="#0BA662"/>
<path d="M252.781 15.344C253.805 13.904 254.701 12.944 255.469 12.464C256.269 11.984 257.389 11.744 258.829 11.744C260.141 11.744 261.181 12.096 261.949 12.8C262.717 13.472 263.101 14.416 263.101 15.632V32.048C263.101 33.264 262.733 34.256 261.997 35.024C261.261 35.76 260.301 36.128 259.117 36.128C257.901 36.128 256.925 35.76 256.189 35.024C255.453 34.256 255.085 33.264 255.085 32.048V22.352L247.837 32.768C246.845 34.144 245.933 35.056 245.101 35.504C244.301 35.92 243.277 36.128 242.029 36.128C240.717 36.128 239.677 35.792 238.909 35.12C238.141 34.416 237.757 33.456 237.757 32.24V15.824C237.757 14.608 238.125 13.632 238.861 12.896C239.629 12.128 240.621 11.744 241.837 11.744C243.021 11.744 243.965 12.128 244.669 12.896C245.405 13.632 245.773 14.608 245.773 15.824V25.52L252.781 15.344Z" fill="#0BA662"/>
<path d="M285.134 22.736C286.286 23.408 287.166 24.048 287.774 24.656C288.382 25.264 289.134 26.4 290.03 28.064L291.086 30.128C291.438 30.8 291.614 31.472 291.614 32.144C291.614 33.264 291.182 34.208 290.318 34.976C289.486 35.744 288.51 36.128 287.39 36.128C286.718 36.128 286.078 35.952 285.47 35.6C284.862 35.248 284.35 34.704 283.934 33.968L281.63 29.504C281.182 28.64 280.702 28.016 280.19 27.632C279.71 27.248 278.942 27.056 277.886 27.056H276.974V32.192C276.974 33.408 276.59 34.368 275.822 35.072C275.054 35.776 274.014 36.128 272.702 36.128C271.39 36.128 270.35 35.776 269.582 35.072C268.814 34.368 268.43 33.408 268.43 32.192V15.68C268.43 14.464 268.814 13.504 269.582 12.8C270.35 12.096 271.39 11.744 272.702 11.744C274.014 11.744 275.054 12.096 275.822 12.8C276.59 13.504 276.974 14.464 276.974 15.68V20.864H277.742L283.262 13.52C284.19 12.368 285.246 11.792 286.43 11.792C287.358 11.792 288.158 12.128 288.83 12.8C289.534 13.44 289.886 14.24 289.886 15.2C289.886 16.096 289.534 17.008 288.83 17.936L285.134 22.736Z" fill="#0BA662"/>
<path d="M307.301 11.648C310.949 11.648 313.637 12.528 315.365 14.288C317.125 16.016 318.005 18.656 318.005 22.208V32.24C318.005 33.456 317.637 34.416 316.901 35.12C316.197 35.792 315.205 36.128 313.925 36.128C312.805 36.128 311.877 35.808 311.141 35.168C310.437 34.528 310.053 33.664 309.989 32.576C309.541 33.728 308.789 34.624 307.733 35.264C306.677 35.904 305.413 36.224 303.941 36.224C302.309 36.224 300.837 35.904 299.525 35.264C298.213 34.592 297.173 33.68 296.405 32.528C295.669 31.344 295.301 30.016 295.301 28.544C295.301 26.848 295.733 25.504 296.597 24.512C297.493 23.488 298.901 22.752 300.821 22.304C302.741 21.856 305.333 21.632 308.597 21.632H309.893V21.056C309.893 19.936 309.637 19.136 309.125 18.656C308.613 18.144 307.749 17.888 306.533 17.888C305.221 17.888 303.301 18.336 300.773 19.232C300.037 19.488 299.413 19.616 298.901 19.616C298.101 19.616 297.461 19.328 296.981 18.752C296.501 18.176 296.261 17.424 296.261 16.496C296.261 15.792 296.405 15.216 296.693 14.768C296.981 14.32 297.445 13.92 298.085 13.568C299.205 12.992 300.613 12.528 302.309 12.176C304.005 11.824 305.669 11.648 307.301 11.648ZM305.957 30.512C307.109 30.512 308.053 30.112 308.789 29.312C309.525 28.48 309.893 27.424 309.893 26.144V25.568H309.125C307.077 25.568 305.621 25.76 304.757 26.144C303.893 26.496 303.461 27.104 303.461 27.968C303.461 28.704 303.685 29.312 304.133 29.792C304.613 30.272 305.221 30.512 305.957 30.512Z" fill="#0BA662"/>
</g>
</g>
</svg>
