<svg width="100" height="56" viewBox="0 0 100 56" fill="none" xmlns="http://www.w3.org/2000/svg">
<rect width="100" height="56" rx="15" fill="#0BA662"/>
<path fill-rule="evenodd" clip-rule="evenodd" d="M41.5248 11.2067C40.7088 10.4022 39.7132 10 38.5381 10C37.363 10 36.3511 10.4022 35.5024 11.2067C34.6863 11.9777 34.2783 13.0838 34.2783 14.5251V30.8156L19.4914 11.5084C18.7406 10.5028 17.6471 10 16.2108 10C15.0357 10 14.0401 10.4022 13.2241 11.2067C12.408 11.9777 12 13.0838 12 14.5251V41.4246C12 42.8994 12.408 44.0391 13.2241 44.8436C14.0401 45.6145 15.0357 46 16.2108 46C17.386 46 18.3815 45.6145 19.1976 44.8436C20.0137 44.0391 20.4217 42.8994 20.4217 41.4246V25.0838L35.2575 44.4916C35.9757 45.4972 37.0855 46 38.587 46C39.7295 46 40.7088 45.6145 41.5248 44.8436C42.3735 44.0391 42.7979 42.8994 42.7979 41.4246V14.5251C42.7979 13.0838 42.3735 11.9777 41.5248 11.2067ZM58.9248 24.6722C58.272 24.0688 57.26 23.7672 55.8891 23.7672H50.681C49.31 23.7672 48.2818 24.0688 47.5963 24.6722C46.9434 25.2755 46.617 26.1303 46.617 27.2364C46.617 28.3426 46.9434 29.2141 47.5963 29.851C48.2818 30.4543 49.31 30.756 50.681 30.756H55.8891C57.26 30.756 58.272 30.4543 58.9248 29.851C59.6103 29.2141 59.953 28.3426 59.953 27.2364C59.953 26.1303 59.6103 25.2755 58.9248 24.6722ZM87.9718 39.2626C87.2863 38.6592 86.2091 38.3575 84.7402 38.3575H80.7252V14.5251C80.7252 13.1508 80.3172 12.0615 79.5011 11.257C78.7177 10.4525 77.6732 10.0503 76.3675 10.0503C75.0944 10.0503 73.7398 10.4693 72.3035 11.3073L64.4694 15.9832C63.3269 16.6872 62.7557 17.7263 62.7557 19.1006C62.7557 20.1061 63.0821 21.0279 63.735 21.8659C64.3878 22.6704 65.1712 23.0726 66.0852 23.0726C66.6728 23.0726 67.244 22.905 67.7989 22.5698L71.716 20.2067V38.3575H67.75C66.2811 38.3575 65.2039 38.6592 64.5184 39.2626C63.8329 39.8659 63.4901 40.771 63.4901 41.9777C63.4901 44.4581 64.9101 45.6983 67.75 45.6983H84.7402C87.5801 45.6983 89 44.4581 89 41.9777C89 40.771 88.6573 39.8659 87.9718 39.2626ZM59.9638 13.394C59.9638 14.3055 59.5746 15.1331 58.9413 15.7428L58.9842 15.7453L53.3977 20.8607L47.9551 15.7453L47.9958 15.7429C47.3627 15.1332 46.9736 14.3058 46.9736 13.3945C46.9736 11.52 48.6196 10.0005 50.65 10.0005C51.7818 10.0005 52.7941 10.4726 53.4685 11.2152C54.1429 10.4724 55.1554 10 56.2875 10C58.3179 10 59.9638 11.5195 59.9638 13.394Z" fill="white"/>
</svg>
